HIERARCHY
ROOT hips_JNT
{
    OFFSET 0 0 0
    CHANNELS 6 Xposition Yposition Zposition Zrotation Xrotation Yrotation
    JOINT spine_JNT
    {
        OFFSET -0.000424254 9.31981 2.54342
        CHANNELS 3 Zrotation Xrotation Yrotation
        JOINT spine1_JNT
        {
            OFFSET 0 10.8731 -4.54485e-05
            CHANNELS 3 Zrotation Xrotation Yrotation
            JOINT spine2_JNT
            {
                OFFSET 0 12.4264 -5.95116
                CHANNELS 3 Zrotation Xrotation Yrotation
                JOINT neck_JNT
                {
                    OFFSET 0 13.9797 -1.46048
                    CHANNELS 3 Zrotation Xrotation Yrotation
                    JOINT head_JNT
                    {
                        OFFSET 0 5.8702 2.0915
                        CHANNELS 3 Zrotation Xrotation Yrotation
                        End Site
                        {
                            OFFSET 0 0 0
                        }
                    }
                }
                JOINT l_shoulder_JNT
                {
                    OFFSET 4.39914 12.861 -1.48501
                    CHANNELS 3 Zrotation Xrotation Yrotation
                    JOINT l_arm_JNT
                    {
                        OFFSET 8.75735 -2.31198 -0.0490516
                        CHANNELS 3 Zrotation Xrotation Yrotation
                        JOINT l_forearm_JNT
                        {
                            OFFSET 26.9001 -4.76837e-05 1.2666e-05
                            CHANNELS 3 Zrotation Xrotation Yrotation
                            JOINT l_hand_JNT
                            {
                                OFFSET 23.0148 -4.76837e-05 -3.72529e-06
                                CHANNELS 3 Zrotation Xrotation Yrotation
                                JOINT l_handThumb1_JNT
                                {
                                    OFFSET 3.63 -0.779998 2.13
                                    CHANNELS 3 Zrotation Xrotation Yrotation
                                    JOINT l_handThumb2_JNT
                                    {
                                        OFFSET 3.55114 -2.11837 2.24006
                                        CHANNELS 3 Zrotation Xrotation Yrotation
                                        JOINT l_handThumb3_JNT
                                        {
                                            OFFSET 2.15911 -1.11631 0.963467
                                            CHANNELS 3 Zrotation Xrotation Yrotation
                                            End Site
                                            {
                                                OFFSET 0 0 0
                                            }
                                        }
                                    }
                                }
                                JOINT l_handIndex1_JNT
                                {
                                    OFFSET 10.5149 -0.0410199 2.19757
                                    CHANNELS 3 Zrotation Xrotation Yrotation
                                    JOINT l_handIndex2_JNT
                                    {
                                        OFFSET 2.75183 -0.102866 -0.139054
                                        CHANNELS 3 Zrotation Xrotation Yrotation
                                        JOINT l_handIndex3_JNT
                                        {
                                            OFFSET 2.35301 -0.0733972 -0.0904871
                                            CHANNELS 3 Zrotation Xrotation Yrotation
                                            End Site
                                            {
                                                OFFSET 0 0 0
                                            }
                                        }
                                    }
                                }
                                JOINT l_handMiddle1_JNT
                                {
                                    OFFSET 10.0671 0.139201 0.0595726
                                    CHANNELS 3 Zrotation Xrotation Yrotation
                                    JOINT l_handMiddle2_JNT
                                    {
                                        OFFSET 3.90903 -0.288403 -0.119066
                                        CHANNELS 3 Zrotation Xrotation Yrotation
                                        JOINT l_handMiddle3_JNT
                                        {
                                            OFFSET 2.3284 -0.0191092 -0.0594396
                                            CHANNELS 3 Zrotation Xrotation Yrotation
                                            End Site
                                            {
                                                OFFSET 0 0 0
                                            }
                                        }
                                    }
                                }
                                JOINT l_handRing1_JNT
                                {
                                    OFFSET 9.46811 0.132239 -1.80983
                                    CHANNELS 3 Zrotation Xrotation Yrotation
                                    JOINT l_handRing2_JNT
                                    {
                                        OFFSET 3.28153 -0.224054 -0.0339366
                                        CHANNELS 3 Zrotation Xrotation Yrotation
                                        JOINT l_handRing3_JNT
                                        {
                                            OFFSET 2.245 -0.0702143 -0.00838935
                                            CHANNELS 3 Zrotation Xrotation Yrotation
                                            End Site
                                            {
                                                OFFSET 0 0 0
                                            }
                                        }
                                    }
                                }
                                JOINT l_handPinky1_JNT
                                {
                                    OFFSET 8.49077 -0.0777721 -3.58415
                                    CHANNELS 3 Zrotation Xrotation Yrotation
                                    JOINT l_handPinky2_JNT
                                    {
                                        OFFSET 2.53217 -0.0730753 -0.0170402
                                        CHANNELS 3 Zrotation Xrotation Yrotation
                                        JOINT l_handPinky3_JNT
                                        {
                                            OFFSET 1.95121 0.0251174 0.0170089
                                            CHANNELS 3 Zrotation Xrotation Yrotation
                                            End Site
                                            {
                                                OFFSET 0 0 0
                                            }
                                        }
                                    }
                                }
                            }
                        }
                    }
                }
                JOINT r_shoulder_JNT
                {
                    OFFSET -4.39782 12.8606 -1.48501
                    CHANNELS 3 Zrotation Xrotation Yrotation
                    JOINT r_arm_JNT
                    {
                        OFFSET -8.75732 -2.312 -0.0490502
                        CHANNELS 3 Zrotation Xrotation Yrotation
                        JOINT r_forearm_JNT
                        {
                            OFFSET -26.9 0 1.00583e-05
                            CHANNELS 3 Zrotation Xrotation Yrotation
                            JOINT r_hand_JNT
                            {
                                OFFSET -23.0149 0 0
                                CHANNELS 3 Zrotation Xrotation Yrotation
                                JOINT r_handThumb1_JNT
                                {
                                    OFFSET -3.63 -0.779998 2.13
                                    CHANNELS 3 Zrotation Xrotation Yrotation
                                    JOINT r_handThumb2_JNT
                                    {
                                        OFFSET -3.5512 -2.118 2.24006
                                        CHANNELS 3 Zrotation Xrotation Yrotation
                                        JOINT r_handThumb3_JNT
                                        {
                                            OFFSET -2.1591 -1.116 0.963467
                                            CHANNELS 3 Zrotation Xrotation Yrotation
                                            End Site
                                            {
                                                OFFSET 0 0 0
                                            }
                                        }
                                    }
                                }
                                JOINT r_handIndex1_JNT
                                {
                                    OFFSET -10.5149 -0.0409961 2.19756
                                    CHANNELS 3 Zrotation Xrotation Yrotation
                                    JOINT r_handIndex2_JNT
                                    {
                                        OFFSET -2.7518 -0.102997 -0.13905
                                        CHANNELS 3 Zrotation Xrotation Yrotation
                                        JOINT r_handIndex3_JNT
                                        {
                                            OFFSET -2.353 -0.0730038 -0.0904899
                                            CHANNELS 3 Zrotation Xrotation Yrotation
                                            End Site
                                            {
                                                OFFSET 0 0 0
                                            }
                                        }
                                    }
                                }
                                JOINT r_handMiddle1_JNT
                                {
                                    OFFSET -10.0671 0.139999 0.05957
                                    CHANNELS 3 Zrotation Xrotation Yrotation
                                    JOINT r_handMiddle2_JNT
                                    {
                                        OFFSET -3.9091 -0.288999 -0.11907
                                        CHANNELS 3 Zrotation Xrotation Yrotation
                                        JOINT r_handMiddle3_JNT
                                        {
                                            OFFSET -2.3284 -0.019002 -0.05944
                                            CHANNELS 3 Zrotation Xrotation Yrotation
                                            End Site
                                            {
                                                OFFSET 0 0 0
                                            }
                                        }
                                    }
                                }
                                JOINT r_handRing1_JNT
                                {
                                    OFFSET -9.4681 0.133002 -1.80983
                                    CHANNELS 3 Zrotation Xrotation Yrotation
                                    JOINT r_handRing2_JNT
                                    {
                                        OFFSET -3.2816 -0.224996 -0.0339396
                                        CHANNELS 3 Zrotation Xrotation Yrotation
                                        JOINT r_handRing3_JNT
                                        {
                                            OFFSET -2.245 -0.0699997 -0.0083901
                                            CHANNELS 3 Zrotation Xrotation Yrotation
                                            End Site
                                            {
                                                OFFSET 0 0 0
                                            }
                                        }
                                    }
                                }
                                JOINT r_handPinky1_JNT
                                {
                                    OFFSET -8.4908 -0.0769973 -3.58415
                                    CHANNELS 3 Zrotation Xrotation Yrotation
                                    JOINT r_handPinky2_JNT
                                    {
                                        OFFSET -2.5322 -0.0740051 -0.0170402
                                        CHANNELS 3 Zrotation Xrotation Yrotation
                                        JOINT r_handPinky3_JNT
                                        {
                                            OFFSET -1.9512 0.0259995 0.0170097
                                            CHANNELS 3 Zrotation Xrotation Yrotation
                                            End Site
                                            {
                                                OFFSET 0 0 0
                                            }
                                        }
                                    }
                                }
                            }
                        }
                    }
                }
            }
        }
    }
    JOINT l_upleg_JNT
    {
        OFFSET 10.0614 -5.18575 -0.706233
        CHANNELS 3 Zrotation Xrotation Yrotation
        JOINT l_leg_JNT
        {
            OFFSET -0.348572 -45.5824 -0.819168
            CHANNELS 3 Zrotation Xrotation Yrotation
            JOINT l_foot_JNT
            {
                OFFSET 0.349145 -42.3325 -1.70849
                CHANNELS 3 Zrotation Xrotation Yrotation
                JOINT l_toebase_JNT
                {
                    OFFSET 0.0702709 -8.12666 12.8887
                    CHANNELS 3 Zrotation Xrotation Yrotation
                    End Site
                    {
                        OFFSET 0 0 0
                    }
                }
            }
        }
    }
    JOINT r_upleg_JNT
    {
        OFFSET -10.061 -5.18577 -0.706233
        CHANNELS 3 Zrotation Xrotation Yrotation
        JOINT r_leg_JNT
        {
            OFFSET 0.34858 -45.5824 -0.819165
            CHANNELS 3 Zrotation Xrotation Yrotation
            JOINT r_foot_JNT
            {
                OFFSET -0.34918 -42.3325 -1.70849
                CHANNELS 3 Zrotation Xrotation Yrotation
                JOINT r_toebase_JNT
                {
                    OFFSET -0.0702001 -8.12666 12.8887
                    CHANNELS 3 Zrotation Xrotation Yrotation
                    End Site
                    {
                        OFFSET 0 0 0
                    }
                }
            }
        }
    }
}
MOTION
Frames: 4
Frame Time: 0.033333
13.4713 105.315 -37.4063 1.5849 -7.32231 15.2369 0.819006 -0.0012231 0.0395647 -0.126538 2.01537 -3.54223 -5.33608e-08 -4.26887e-07 0 8.25492 25.3277 -6.73383 -16.6543 1.00205 0 -5.33608e-08 -4.26887e-07 0 10.777 -41.7943 0.167859 15.3221 -35.7261 -134.69 -1.70755e-06 6.83019e-06 0 4.10661 20.7048 -22.2077 -0 0 0 -1.12328 -0.00110106 0.111906 -1.76613 0.529741 0.0395647 -2.27079 0.681026 0.0395647 -1.51382 0.454083 0 -2.06637 0.413177 0.0559529 -2.65679 0.531152 0 -1.77116 0.354172 0.0395647 -2.35891 -0.235823 0.0559529 -3.03289 -0.303145 0.0559529 -2.02192 -0.202149 0.0395647 -2.58298 -0.516408 0 -3.32104 -0.663806 0.0395647 -2.21397 -0.442675 0 -5.33608e-08 -4.26887e-07 0 -131.648 55.8154 -165.624 -6.49476 -6.39639 89.1237 1.70755e-06 3.41509e-06 0.0559529 -4.10661 20.7048 22.2077 -0 0 0 17.3463 0.260637 1.70818 27.4553 7.87502 -1.92695 35.44 9.86815 -3.16008 23.4937 6.81986 -1.41938 32.0386 6.05632 -1.74041 41.2871 7.51769 -2.83606 27.4346 5.26477 -1.28632 36.4779 -3.4023 1.12186 46.9333 -4.17838 1.81483 31.2571 -2.97029 0.829917 40.128 -7.34489 2.6858 51.7612 -8.9275 4.33796 34.3455 -6.43782 1.99127 -45.0087 -52.4322 -41.7871 -15.134 59.4014 8.66646 8.53774e-07 1.06722e-07 0 -8.53774e-07 -8.53774e-07 0 9.05628 15.2554 -1.84137 0.151888 -1.27883 0.321425 1.26643 3.75517 0.0884693 -2.13443e-07 -1.70755e-06 0 
11.6434 109.234 -38.34 2.06671 -6.35242 16.821 -1.71543 -0.000641501 0.0395647 -0.185723 2.00638 -3.85951 -5.33608e-08 -4.26887e-07 0 11.4975 27.1806 -9.45276 -15.3376 -2.77061 -0.527859 -5.33608e-08 -4.26887e-07 0 14.9671 -39.178 3.24779 19.7166 -43.0868 -132.483 4.69575e-06 6.83019e-06 0 4.10661 20.7048 -22.2077 -0 0 0 -1.04456 -0.000952148 0.104678 -1.64236 0.492628 0 -2.11164 0.633322 0 -1.40773 0.422267 0 -1.92155 0.384232 0 -2.47059 0.493953 0 -1.64704 0.329358 0 -2.19359 -0.219305 0.0559529 -2.82034 -0.281918 0 -1.88022 -0.187988 0.0559529 -2.40196 -0.48024 0.0395647 -3.08828 -0.617333 0.0559529 -2.05881 -0.411666 0.0395647 -5.33608e-08 -4.26887e-07 0 -129.954 56.7666 -167.288 -7.50178 -7.19926 87.6359 6.83019e-06 -6.83019e-06 0.0559529 -4.10661 20.7048 22.2077 -0 0 0 17.4593 0.264018 1.7196 27.6365 7.92229 -1.95197 35.6755 9.92392 -3.20044 23.6482 6.86175 -1.43692 32.2489 6.09153 -1.76276 41.5592 7.55778 -2.87172 27.6143 5.29638 -1.30204 36.7161 -3.42136 1.13572 47.2402 -4.19916 1.83584 31.4611 -2.98767 0.842089 40.3922 -7.38456 2.71911 52.1036 -8.96871 4.39088 34.5712 -6.47456 2.01744 -55.1475 -56.9541 -49.7382 -5.10278 64.0792 3.19457 1.92099e-06 -6.34994e-06 0.0559529 2.13443e-07 -9.07134e-07 0 10.4881 12.1277 -1.42653 -0.175334 -1.2792 0.282548 0.937884 2.0115 0.068528 -1.06722e-07 -9.60495e-07 0 
10.6357 113.352 -38.6253 2.974 -5.19421 17.7019 -4.29874 -0.000393249 0.068528 -0.284689 1.99835 -4.00543 -6.93691e-07 -8.27093e-07 0 13.4453 27.0859 -11.0545 -13.4689 -3.68958 -0.573347 -6.93691e-07 -8.27093e-07 0 17.3987 -35.3357 5.56005 27.3015 -52.3425 -127.404 8.11085e-06 2.39057e-05 0 4.10661 20.7048 -22.2077 -0 0 0 -1.0011 -0.000874563 0.0969133 -1.57402 0.472135 0 -2.02377 0.606981 0 -1.34915 0.404701 0.0559529 -1.8416 0.368251 0.068528 -2.36779 0.473412 0.0395647 -1.5785 0.315658 0.0395647 -2.10232 -0.210184 0.0395647 -2.70299 -0.270197 0.0559529 -1.80199 -0.180168 0.0559529 -2.30201 -0.460269 0 -2.95977 -0.59167 0 -1.97314 -0.394544 0 -6.93691e-07 -8.27093e-07 0 -128.999 57.9907 -169.103 -9.15474 -8.6709 86.8779 3.4151e-06 1.02453e-05 0 -4.10661 20.7048 22.2077 -0 0 0 17.5728 0.267436 1.73004 27.8185 7.96971 -1.97747 35.9122 9.97979 -3.24127 23.8035 6.90379 -1.45694 32.4602 6.12683 -1.78482 41.8326 7.5979 -2.90775 27.7949 5.32809 -1.31758 36.9555 -3.44045 1.15215 47.5485 -4.21992 1.85998 31.6661 -3.00509 0.851332 40.6578 -7.42426 2.75458 52.4478 -9.0098 4.4451 34.7979 -6.51138 2.0425 -60.4571 -58.2425 -54.5015 3.79806 65.7411 -2.4537 -3.46846e-06 7.52388e-06 0.0559529 2.13443e-06 -2.56132e-06 0 10.8542 9.95908 -0.939612 -1.7273 -1.28107 0.125115 0.674694 1.23549 0.104678 -9.60495e-07 -2.13443e-07 0 
10.2523 117.072 -38.5195 4.49253 -4.12971 17.8043 -6.58231 -0.000398615 0 -0.553866 2.00275 -3.88237 1.98785e-16 2.66804e-08 0 12.9512 24.711 -10.5484 -10.5126 -1.05341 -0.205584 1.98785e-16 2.66804e-08 0 18.5066 -32.2849 6.89097 36.5627 -59.4993 -119.943 -3.84198e-06 6.83019e-06 0 4.10661 20.7048 -22.2077 -0 0 0 -0.957975 -0.00080084 0.0884693 -1.50621 0.451802 0 -1.93658 0.580844 0.0559529 -1.29103 0.38727 0 -1.76226 0.352392 0 -2.26578 0.453029 0 -1.51051 0.302063 0 -2.01176 -0.201133 0 -2.58655 -0.258565 0.068528 -1.72436 -0.172409 0 -2.20284 -0.440451 0 -2.83226 -0.566204 0 -1.88814 -0.377554 0.0395647 1.98785e-16 2.66804e-08 0 -128.604 59.7807 -170.975 -11.8217 -11.1516 86.636 1.01778e-13 6.83019e-06 0 -4.10661 20.7048 22.2077 -0 0 0 17.6952 0.271147 1.74266 28.0149 8.02076 -2.00459 36.1675 10.0399 -3.28565 23.971 6.94907 -1.47721 32.6882 6.1648 -1.80921 42.1274 7.64097 -2.94652 27.9898 5.36223 -1.33704 37.2137 -3.46097 1.16565 47.881 -4.24217 1.88506 31.8872 -3.02383 0.864108 40.9443 -7.4669 2.79071 52.8191 -9.05375 4.50337 35.0425 -6.55097 2.07066 -57.3783 -56.6315 -52.2435 6.63122 62.7102 -4.04278 -6.93691e-07 -7.6306e-06 0.0559529 1.60083e-07 8.53774e-07 0 10.2185 8.78661 -0.678394 -5.25194 -1.28766 0.118694 0.447755 1.28857 0.131221 -0 0 0 
